<svg width="120" height="120" viewBox="0 0 120 120" fill="none" xmlns="http://www.w3.org/2000/svg">
    <g clip-path="url(#clip0)">
        <path d="M84.7132 71.7254L84.4723 85.4963L74.996 81.4428V81.4402L72.169 78.6134H72.1664L60.7284 67.1752L39.3987 45.8454L39.315 45.7594L42.0239 43.0479L49.0298 36.0422L51.7315 38.7462H51.7338L59.7476 46.7623L60.9914 48.0061L70.4459 57.4606L76.9552 63.9699L84.7106 71.723L84.7132 71.7254Z" fill="#D0D4DE"/>
        <path d="M117.188 114.228C113.599 117.649 107.886 117.46 104.378 113.955L100.84 110.415L96.1451 105.722L74.5228 84.0975C73.9205 83.4952 73.9205 82.5169 74.5228 81.9146L74.9948 81.4425L78.5323 77.9051L84.7123 71.7251L85.1843 71.2531C85.789 70.6484 86.7649 70.6484 87.3673 71.2531L117.345 101.228C120.936 104.82 120.885 110.7 117.188 114.228Z" fill="#E13F3F"/>
        <path d="M74.996 81.4427V81.4401L72.169 78.6133H72.1664L60.7284 67.1751L39.3987 45.8453L39.315 45.7593L42.0239 43.0479L44.7255 45.7521H44.7281L52.7419 53.7682L53.9857 55.012L63.4399 64.4662L69.9492 70.9755L77.7049 78.7289L77.7073 78.7312L74.996 81.4427Z" fill="#C2C7D5"/>
        <path d="M42.7861 13.2618C50.2622 5.7857 62.0995 3.64773 71.7884 9.33882C62.906 13.281 52.887 22.4031 49.1984 28.7826L38.8601 29.0929L38.2371 17.811L38.2406 17.8075C40.7592 15.2884 42.5897 13.4582 42.7861 13.2618Z" fill="#C2C7D5"/>
        <path d="M117.188 114.228C113.599 117.649 107.886 117.46 104.378 113.955L100.84 110.415L96.1451 105.722L74.5228 84.0975C73.9205 83.4951 73.9205 82.5168 74.5228 81.9145L74.9948 81.4425V81.4401L78.5323 77.9053C78.5323 77.905 93.2742 99.3972 117.188 114.228Z" fill="#C33434"/>
        <path d="M17.8165 31.2922L31.4847 36.2207L35.7982 49.274C33.9234 47.9472 31.462 47.7039 29.4042 48.7239C28.6387 49.1033 27.9023 49.6262 27.2411 50.2874C26.5931 50.9354 26.0782 51.6557 25.7008 52.405C24.6616 54.4686 24.9056 56.9493 26.2296 58.843L12.926 56.0099L8.24786 40.8613C10.2553 42.2486 12.892 42.4309 15.0183 41.2342C15.6529 40.877 16.2616 40.4193 16.8171 39.8636C17.4797 39.201 18.0035 38.4627 18.3832 37.6947C19.4036 35.6317 19.1536 33.1651 17.8165 31.2922Z" fill="#C2C7D5"/>
        <path d="M26.2296 58.843L17.982 67.0907L0 49.109L8.24766 40.8613C8.24766 40.8613 25.8994 58.5023 26.2296 58.843Z" fill="#D0D4DE"/>
        <path d="M22.9238 55.5369L26.0267 58.6398C26.0267 58.6398 26.1689 58.7718 26.2294 58.8426L17.9817 67.0902L14.4612 63.5697L22.7088 55.322C22.7824 55.3886 22.9238 55.5369 22.9238 55.5369Z" fill="#C2C7D5"/>
        <path d="M51.7315 38.7462L42.0166 48.4611V48.4634L39.3987 45.8454L39.315 45.7594L49.0299 36.0422L51.7315 38.7462Z" fill="#C2C7D5"/>
        <path d="M48.9677 84.5871L93.7575 39.7973C96.3145 37.2403 99.4852 35.4148 102.935 34.3294C105.35 33.5693 107.624 32.2326 109.539 30.3178C116.021 23.8359 115.891 13.2506 109.157 6.92858L106.084 16.7794C104.901 20.5744 100.864 22.691 97.0695 21.5069C93.2745 20.3231 91.1578 16.2869 92.3417 12.4919L95.3794 2.75366C92.4565 3.23015 89.6421 4.49577 87.2986 6.55616C82.3767 10.8839 80.7277 17.4037 82.3491 23.2019C83.5655 27.5519 82.4313 32.2186 79.2375 35.4126L34.4475 80.2024C31.8905 82.7594 28.7198 84.585 25.2703 85.6704C22.8546 86.4305 20.5812 87.7669 18.6663 89.6819C12.1845 96.1638 12.3136 106.749 19.0477 113.071L22.1205 103.22C23.3044 99.4254 27.3406 97.3087 31.1356 98.4928C34.9306 99.6766 37.0472 103.713 35.8634 107.508L32.8254 117.246C35.7483 116.77 38.5627 115.504 40.9062 113.444C45.8281 109.116 47.4771 102.596 45.8557 96.798C44.6398 92.4476 45.7737 87.7809 48.9677 84.5871Z" fill="#D0D4DE"/>
        <path d="M70.4458 57.4606L60.7284 67.1752L51.2767 57.7235L60.9913 48.0061L70.4458 57.4606Z" fill="#C2C7D5"/>
        <path d="M48.9665 84.5858L88.6874 44.865L79.2352 35.4128L39.5143 75.1336L48.9665 84.5858Z" fill="#E13F3F"/>
        <path d="M34.7713 14.3381L38.2375 17.8111L45.7291 25.3132L49.1985 28.7827L52.7444 32.3285L49.0298 36.0431L49.0281 36.0415L39.3117 45.758L39.3133 45.7596L35.7986 49.2743C35.4665 48.9527 18.1401 31.6226 17.8169 31.2926C17.8164 31.2926 28.4545 20.6548 34.7713 14.3381Z" fill="#D0D4DE"/>
    </g>
    <defs>
        <clipPath id="clip0">
            <rect width="120" height="120" fill="white"/>
        </clipPath>
    </defs>
</svg>
