<svg width="80" height="80" viewBox="0 0 80 80" fill="none" xmlns="http://www.w3.org/2000/svg">
    <path d="M80 20.2491V21.292H0V20.2491C0 18.4214 0.268281 16.6036 0.796406 14.8537L2.62438 8.79687C2.99953 7.55375 4.14469 6.70312 5.44328 6.70312H74.5567C75.8552 6.70312 77.0003 7.55375 77.3756 8.79672L79.2036 14.8536C79.7317 16.6037 80 18.4216 80 20.2491Z" fill="#C2C7D5"/>
    <path d="M79.2034 14.8537L77.3755 8.79687C77.0003 7.55375 75.8551 6.70312 74.5565 6.70312H66.8394C68.1378 6.70312 69.2829 7.55375 69.6583 8.79687L71.4862 14.8537C72.0144 16.6034 72.2826 18.4212 72.2826 20.2491V21.292H79.9998V20.2491C79.9998 18.4216 79.7315 16.6037 79.2034 14.8537Z" fill="#C8CDDA"/>
    <path d="M76.2994 73.2967H3.70062C1.65687 73.2967 0 71.6398 0 69.596V19.8637C0 17.8198 1.65687 16.1631 3.70062 16.1631H76.2992C78.3431 16.1631 79.9998 17.82 79.9998 19.8637V69.5962C80 71.6398 78.3431 73.2967 76.2994 73.2967Z" fill="#EBEDF2"/>
    <path d="M76.2994 16.1631H71.7991V68.3103C71.7991 69.1814 71.0928 69.8876 70.2217 69.8876H3.70062C1.65688 69.8875 0 68.2307 0 66.1868V69.5962C0 71.6401 1.65688 73.2968 3.70062 73.2968H68.0981H76.2992C78.3431 73.2968 79.9998 71.64 79.9998 69.5962V66.1868V19.8639C80 17.8198 78.3431 16.1631 76.2994 16.1631Z" fill="#D0D4DE"/>
    <path d="M53.0983 66.6969C64.862 66.6969 74.3983 57.1606 74.3983 45.3969C74.3983 33.6333 64.862 24.0969 53.0983 24.0969C41.3347 24.0969 31.7983 33.6333 31.7983 45.3969C31.7983 57.1606 41.3347 66.6969 53.0983 66.6969Z" fill="#4D5C80"/>
    <path d="M23.0291 24.0967H7.0808C6.26408 24.0967 5.60205 24.7587 5.60205 25.5754V41.5237C5.60205 42.3404 6.26408 43.0025 7.0808 43.0025H23.0291C23.8458 43.0025 24.5078 42.3404 24.5078 41.5237V25.5754C24.5078 24.7587 23.8458 24.0967 23.0291 24.0967Z" fill="#4285F4"/>
    <path d="M20.5947 55.8132H9.51518C9.15221 55.8132 8.80658 55.9684 8.56533 56.2398L5.92299 59.2125C5.71627 59.4451 5.60205 59.7454 5.60205 60.0567V65.51C5.60205 66.2118 6.17096 66.7807 6.87283 66.7807H23.2372C23.9391 66.7807 24.508 66.2118 24.508 65.51V60.0567C24.508 59.7454 24.3938 59.4451 24.187 59.2125L21.5447 56.2398C21.3033 55.9685 20.9577 55.8132 20.5947 55.8132Z" fill="#C2C7D5"/>
    <path d="M11.5857 58.9331C10.9288 58.9331 10.3965 59.4656 10.3965 60.1223V63.122C10.3965 63.7789 10.929 64.3114 11.5857 64.3114C12.2424 64.3114 12.7749 63.7789 12.7749 63.122V60.1223C12.7751 59.4655 12.2426 58.9331 11.5857 58.9331Z" fill="white"/>
    <path d="M18.5237 58.9331C17.8668 58.9331 17.3345 59.4656 17.3345 60.1223V63.122C17.3345 63.7789 17.867 64.3114 18.5237 64.3114C19.1804 64.3114 19.7129 63.7789 19.7129 63.122V60.1223C19.7129 59.4655 19.1804 58.9331 18.5237 58.9331Z" fill="white"/>
    <path d="M74.3982 44.2068H68.7571C68.1768 36.4941 62.0007 30.3179 54.288 29.7375V24.0964C54.288 23.4396 53.7557 22.9072 53.0988 22.9072C52.4419 22.9072 51.9094 23.4397 51.9094 24.0964V29.7375C44.1967 30.3179 38.0205 36.4939 37.4402 44.2068H31.7991C31.1422 44.2068 30.6099 44.7393 30.6099 45.3961C30.6099 46.053 31.1424 46.5854 31.7991 46.5854H37.4402C38.0205 54.2982 44.1967 60.4743 51.9094 61.0546V66.6957C51.9094 67.3525 52.4417 67.8849 53.0988 67.8849C53.7558 67.8849 54.288 67.3524 54.288 66.6957V61.0546C62.0008 60.4743 68.1769 54.2982 68.7571 46.5854H74.3982C75.055 46.5854 75.5874 46.0529 75.5874 45.3961C75.5874 44.7393 75.055 44.2068 74.3982 44.2068ZM51.9092 32.1274V37.0111C48.1889 37.5364 45.2388 40.4865 44.7135 44.2069H39.8297C40.3988 37.8071 45.5096 32.6964 51.9092 32.1274ZM51.9092 58.6649C45.5096 58.0958 40.3988 52.985 39.8297 46.5854H44.7136C45.2389 50.3057 48.1889 53.2558 51.9094 53.7811V58.6649H51.9092ZM53.0986 51.4877C49.7397 51.4877 47.0071 48.755 47.0071 45.3961C47.0071 42.0372 49.7399 39.3046 53.0986 39.3046C56.4575 39.3046 59.1902 42.0372 59.1902 45.3961C59.1902 48.7552 56.4574 51.4877 53.0986 51.4877ZM54.2878 58.6649V53.7811C58.0082 53.2558 60.9583 50.3058 61.4836 46.5854H66.3674C65.7982 52.985 60.6875 58.0958 54.2878 58.6649ZM61.4836 44.2068C60.9583 40.4865 58.0082 37.5363 54.2878 37.011V32.1272C60.6875 32.6963 65.7982 37.8071 66.3672 44.2068H61.4836Z" fill="#DFEAEF"/>
    <path d="M18.7097 32.8239C18.5145 32.4047 18.0939 32.1365 17.6316 32.1365H15.0547L18.2928 28.4245C18.7227 27.928 18.6684 27.1769 18.1719 26.747C17.6752 26.3172 16.9241 26.3715 16.4944 26.868L11.5786 32.5476C11.2741 32.8997 11.2027 33.397 11.3963 33.8203C11.5897 34.2437 12.0125 34.5151 12.478 34.5151H15.0548L11.5678 38.6878C11.145 39.1905 11.2098 39.9408 11.7125 40.3634C11.9355 40.5509 12.2072 40.6425 12.4773 40.6425C12.8163 40.6425 13.153 40.4984 13.3881 40.2187L18.5417 34.0912C18.8394 33.7375 18.905 33.2431 18.7097 32.8239Z" fill="white"/>
    <path d="M74.398 44.2068H71.7988V46.5854H74.398C75.0549 46.5854 75.5872 46.0529 75.5872 45.3962C75.5872 44.7393 75.0549 44.2068 74.398 44.2068Z" fill="#BFCFD6"/>
</svg>
