<svg width="120" height="120" viewBox="0 0 120 120" fill="none" xmlns="http://www.w3.org/2000/svg">
    <g clip-path="url(#clip0)">
        <path d="M63.714 72.8518L53.1615 94.1963H64.6308C68.2826 94.1963 71.5486 91.9226 72.8161 88.4977L77.3644 76.2092L63.714 72.8518Z" fill="#EBEDF2"/>
        <path d="M69.1356 69.778L74.6818 65.6702L58.9395 44.416L53.3934 48.5238L69.1356 69.778Z" fill="#EBEDF2"/>
        <path d="M33.647 16.0647L21.0803 30.0702L35.6427 49.731C41.7022 57.9123 53.2471 59.6321 61.4281 53.5721C69.6094 47.5126 71.3293 35.9678 65.2693 27.7867L50.7069 8.12598L33.647 16.0647Z" fill="#4D5C80"/>
        <path d="M0 107.147V99.9521C11.973 99.9521 14.6751 93.7214 18.097 85.8329C21.3007 78.4468 25.2883 69.2542 38.8773 69.2542V76.449C30.4218 76.449 28.0907 80.8742 24.6979 88.696C21.1321 96.9167 16.6945 107.147 0 107.147Z" fill="#C8CDDA"/>
        <path d="M48.2053 103.549L37.1684 109.785L35.8085 113.574C34.5926 116.071 36.4104 118.977 39.1875 118.977H47.8357C49.2724 118.977 50.5842 118.157 51.2123 116.867L53.8338 109.785L48.2053 103.549Z" fill="#EBEDF2"/>
        <path d="M43.0521 113.574L44.4119 109.785L50.6517 106.259L48.2053 103.549L37.1684 109.784L35.8085 113.574C34.5926 116.07 36.4104 118.977 39.1875 118.977H46.4308C43.654 118.978 41.8362 116.071 43.0521 113.574Z" fill="#D0D4DE"/>
        <path d="M65.3723 78.6073L53.834 109.785H37.1683L48.366 78.6073H65.3723Z" fill="#C8CDDA"/>
        <path d="M48.366 78.6074L37.1683 109.785H44.4117L55.6094 78.6074H48.366Z" fill="#C2C7D5"/>
        <path d="M38.8772 76.4492V69.2546C34.369 69.2546 30.9183 70.2671 28.2019 71.8888L27.2897 73.5217C25.5703 76.5985 25.5663 80.2332 27.2548 83.3066C29.7164 78.8755 32.6191 76.4492 38.8772 76.4492Z" fill="#C2C7D5"/>
        <path d="M92.0529 55.8982H75.5839C73.519 55.8982 71.5355 56.7112 70.0655 58.1599L65.0628 63.0907C63.5926 64.5415 61.6093 65.3547 59.5466 65.3547H41.1566C39.6817 65.3547 38.3218 66.1511 37.6025 67.439L32.559 76.466C31.0433 79.1784 33.0053 82.5238 36.1157 82.5238H92.0529L97.1072 69.2104L92.0529 55.8982Z" fill="#4D5C80"/>
        <path d="M92.0526 77.6949H36.1154C34.7075 77.6949 33.5368 77.0084 32.8152 76.0067L32.5586 76.4658C31.0429 79.1783 33.0048 82.5237 36.1152 82.5237H92.0524L97.1067 69.2103L96.1898 66.7958L92.0526 77.6949Z" fill="#43506F"/>
        <path d="M102.084 55.8978C102.084 55.8978 111.539 64.8559 120 64.8559V73.5652C111.539 73.5652 102.084 82.5232 102.084 82.5232L97.1068 69.2105L102.084 55.8978Z" fill="#C8CDDA"/>
        <path d="M98.0096 66.796L97.1071 69.2105L102.084 82.5233C102.084 82.5233 111.539 73.5652 120 73.5652V68.7362C111.54 68.7362 102.084 77.6942 102.084 77.6942L98.0096 66.796Z" fill="#D0D4DE"/>
        <path d="M53.6052 22.1118L60.4517 31.3553C64.5341 36.8669 63.3713 44.672 57.8598 48.7543C52.3482 52.8367 44.5431 51.6739 40.4608 46.1624C40.4608 46.1624 30.9011 33.2559 30.8945 33.2472C30.6559 32.9252 33.7619 30.3536 33.9998 30.175C35.7901 28.8295 37.9408 27.9967 40.169 27.7769C42.4701 27.55 44.7784 27.7832 46.9761 26.9041C49.4858 25.9002 51.8225 24.1699 53.593 22.1263C53.5972 22.1214 53.6012 22.1165 53.6052 22.1118Z" fill="#43506F"/>
        <path d="M102.084 55.8982H92.0522V82.5227H102.084V55.8982Z" fill="#43506F"/>
        <path d="M102.084 77.6957H92.0522V82.5247H102.084V77.6957Z" fill="#43506F"/>
        <path d="M46.4879 1.85582L16.3124 24.2065C14.4299 25.6008 14.0339 28.2574 15.4286 30.1404L17.3974 32.7984L54.3903 5.39792L52.4216 2.73988C51.0271 0.857382 48.3704 0.461523 46.4879 1.85582Z" fill="#EBEDF2"/>
    </g>
    <defs>
        <clipPath id="clip0">
            <rect width="120" height="120" fill="white"/>
        </clipPath>
    </defs>
</svg>
