<svg width="120" height="120" viewBox="0 0 120 120" fill="none" xmlns="http://www.w3.org/2000/svg">
    <g clip-path="url(#clip0)">
        <path d="M8.10498 104.402V116.682C8.10498 118.514 9.59061 120 11.4235 120H25.6979C27.5307 120 29.0164 118.514 29.0164 116.682V104.402H8.10498Z" fill="#D0D4DE"/>
        <path d="M15.3484 116.682V104.402H8.10498V116.682C8.10498 118.514 9.59061 120 11.4235 120H18.6669C16.8341 120 15.3484 118.514 15.3484 116.682Z" fill="#C2C7D5"/>
        <path d="M111.895 104.402V116.682C111.895 118.514 110.409 120 108.577 120H94.3021C92.4693 120 90.9836 118.514 90.9836 116.682V104.402H111.895Z" fill="#D0D4DE"/>
        <path d="M98.2271 116.682V104.402H90.9836V116.682C90.9836 118.514 92.4693 120 94.3021 120H101.546C99.7127 120 98.2271 118.514 98.2271 116.682Z" fill="#C2C7D5"/>
        <path d="M33.8011 16.4315H14.3203V38.0361H33.8011V16.4315Z" fill="#D0D4DE"/>
        <path d="M21.5638 16.4315H14.3203V38.0361H21.5638V16.4315Z" fill="#C2C7D5"/>
        <path d="M35.8556 9.72699H12.2661C10.5639 9.72699 9.18378 11.1071 9.18378 12.8093V19.0814C9.18378 20.7836 10.5639 22.1638 12.2661 22.1638H35.8556C37.5579 22.1638 38.938 20.7839 38.938 19.0814V12.8093C38.938 11.1069 37.5581 9.72699 35.8556 9.72699Z" fill="#4D5C80"/>
        <path d="M16.4272 19.0812V12.8093C16.4272 11.1071 17.8074 9.72699 19.5096 9.72699H12.2661C10.5639 9.72699 9.18378 11.1071 9.18378 12.8093V19.0814C9.18378 20.7836 10.5639 22.1638 12.2661 22.1638H19.5096C17.8071 22.1635 16.4272 20.7834 16.4272 19.0812Z" fill="#43506F"/>
        <path d="M118.99 19.4538H103.072C99.9267 19.4538 97.3678 22.0129 97.3678 25.1582V38.0361C97.3678 43.4081 93.0131 47.7631 87.6408 47.7631C82.2686 47.7631 77.9138 43.4081 77.9138 38.0361V25.1582C77.9138 11.286 89.1996 0 103.072 0H118.99V19.4538Z" fill="#D0D4DE"/>
        <path d="M77.9138 25.2145V38.0364C77.9138 43.4084 82.2686 47.7634 87.6408 47.7634C93.0131 47.7634 97.3678 43.4084 97.3678 38.0364V25.2145H77.9138Z" fill="#C2C7D5"/>
        <path d="M111.895 32.4579H8.10498C4.18651 32.4579 1.00977 35.6344 1.00977 39.5532V103.907C1.00977 107.826 4.18626 111.003 8.10498 111.003H111.895C115.814 111.003 118.99 107.826 118.99 103.907V39.5529C118.99 35.6344 115.814 32.4579 111.895 32.4579Z" fill="#EBEDF2"/>
        <path d="M108.048 43.4007H11.9527V83.5242H108.048V43.4007Z" fill="#D0D4DE"/>
        <path d="M36.169 49.4801C28.4467 49.4801 22.1867 55.7401 22.1867 63.4624C22.1867 69.8323 26.4478 75.2036 32.2739 76.8908L36.169 74.8511L40.0641 76.8908C45.8902 75.2036 50.1513 69.8323 50.1513 63.4624C50.1515 55.7401 43.8913 49.4801 36.169 49.4801Z" fill="#EBEDF2"/>
        <path d="M37.7491 61.6552C37.4207 59.9076 34.9176 59.9076 34.5892 61.6552L32.274 76.8908C33.5109 77.2491 34.8167 77.4447 36.169 77.4447C37.5214 77.4447 38.8274 77.2489 40.0641 76.8908L37.7491 61.6552Z" fill="#4D5C80"/>
        <path d="M36.1691 49.4798C35.5551 49.4798 34.9515 49.5237 34.3582 49.6005V53.9379C34.3582 54.938 35.169 55.7488 36.1691 55.7488C37.1692 55.7488 37.9799 54.938 37.9799 53.9379V49.6005C37.3869 49.524 36.7833 49.4798 36.1691 49.4798Z" fill="#C2C7D5"/>
        <path d="M24.3856 55.9396L26.8853 58.4395C27.2388 58.7932 27.7024 58.97 28.1657 58.97C28.6291 58.97 29.0927 58.7932 29.4461 58.4395C30.1533 57.7323 30.1533 56.5857 29.4461 55.8787L26.7494 53.182C26.7405 53.173 26.7306 53.1655 26.7214 53.1566C25.8273 53.9766 25.0426 54.9129 24.3856 55.9396Z" fill="#C2C7D5"/>
        <path d="M45.6167 53.1564C45.6075 53.1654 45.5977 53.1729 45.5887 53.1818L42.892 55.8785C42.1848 56.5857 42.1848 57.7324 42.892 58.4393C43.2455 58.793 43.709 58.9698 44.1724 58.9698C44.6357 58.9698 45.0993 58.793 45.4528 58.4393L47.9525 55.9394C47.2958 54.913 46.5111 53.9766 45.6167 53.1564Z" fill="#C2C7D5"/>
        <path d="M67.1737 69.6633C70.5983 69.6633 73.3745 66.8871 73.3745 63.4624C73.3745 60.0378 70.5983 57.2615 67.1737 57.2615C63.749 57.2615 60.9728 60.0378 60.9728 63.4624C60.9728 66.8871 63.749 69.6633 67.1737 69.6633Z" fill="#4D5C80"/>
        <path d="M90.9837 69.6633C94.4083 69.6633 97.1846 66.8871 97.1846 63.4624C97.1846 60.0378 94.4083 57.2615 90.9837 57.2615C87.559 57.2615 84.7828 60.0378 84.7828 63.4624C84.7828 66.8871 87.559 69.6633 90.9837 69.6633Z" fill="#4285F4"/>
    </g>
    <defs>
        <clipPath id="clip0">
            <rect width="120" height="120" fill="white"/>
        </clipPath>
    </defs>
</svg>
