<svg width="120" height="120" viewBox="0 0 120 120" fill="none" xmlns="http://www.w3.org/2000/svg">
    <path d="M109.145 34.0398H10.855C8.83356 34.0398 7.18872 35.6846 7.18872 37.7064V90.0854C7.18872 92.1074 8.83356 93.7522 10.855 93.7522H109.145C111.166 93.7522 112.811 92.1074 112.811 90.0854V37.7064C112.811 35.6846 111.167 34.0398 109.145 34.0398Z" fill="#EBEDF2"/>
    <path d="M12.9386 90.0854V37.7064C12.9386 35.6846 14.5835 34.0398 16.605 34.0398H10.855C8.83356 34.0398 7.18872 35.6846 7.18872 37.7064V90.0854C7.18872 92.1074 8.83356 93.7522 10.855 93.7522H16.605C14.5835 93.7522 12.9386 92.1074 12.9386 90.0854Z" fill="#C2C7D5"/>
    <path d="M109.145 100.941H10.8551C4.86961 100.941 0 96.0713 0 90.0856V37.7065C0 31.721 4.86961 26.8514 10.8551 26.8514H109.145C115.13 26.8514 120 31.721 120 37.7065V90.0856C120 96.0713 115.13 100.941 109.145 100.941ZM10.8551 34.6437C9.16617 34.6437 7.7925 36.0178 7.7925 37.7065V90.0856C7.7925 91.7747 9.16641 93.1486 10.8551 93.1486H109.145C110.834 93.1486 112.208 91.7745 112.208 90.0856V37.7065C112.208 36.0176 110.834 34.6437 109.145 34.6437H10.8551Z" fill="#D0D4DE"/>
    <path d="M4.88062 90.0856V37.7065C4.88062 31.721 9.75023 26.8514 15.7357 26.8514H10.8551C4.86961 26.8514 0 31.721 0 37.7065V90.0856C0 96.0713 4.86961 100.941 10.8551 100.941H15.7357C9.75023 100.941 4.88062 96.0713 4.88062 90.0856Z" fill="#C2C7D5"/>
    <path d="M34.5658 23.9539C34.5658 25.5542 33.2683 26.8515 31.6683 26.8515H18.1462C16.5462 26.8515 15.2487 25.5542 15.2487 23.9539V21.9568C15.2487 20.3565 16.5462 19.0592 18.1462 19.0592H31.6683C33.2683 19.0592 34.5658 20.3565 34.5658 21.9568V23.9539Z" fill="#D0D4DE"/>
    <path d="M104.751 23.9539C104.751 25.5542 103.454 26.8515 101.854 26.8515H88.3319C86.7318 26.8515 85.4343 25.5542 85.4343 23.9539V21.9568C85.4343 20.3565 86.7318 19.0592 88.3319 19.0592H101.854C103.454 19.0592 104.751 20.3565 104.751 21.9568V23.9539Z" fill="#D0D4DE"/>
    <path d="M31.6683 23.1593H18.1462C16.8792 23.1593 15.8046 22.3444 15.4111 21.2114C15.3075 21.5093 15.2487 21.8278 15.2487 22.1609V24.158C15.2487 25.7583 16.5462 27.0556 18.1462 27.0556H31.6683C33.2683 27.0556 34.5658 25.7583 34.5658 24.158C34.5658 22.0031 34.608 21.8004 34.4034 21.2114C34.0097 22.3446 32.9353 23.1593 31.6683 23.1593Z" fill="#C2C7D5"/>
    <path d="M101.854 22.9555H88.3319C87.0649 22.9555 85.9903 22.1405 85.5967 21.0076C85.3912 21.5991 85.4343 21.8096 85.4343 23.9541C85.4343 25.5544 86.7318 26.8517 88.3319 26.8517H101.854C103.454 26.8517 104.751 25.5544 104.751 23.9541V21.957C104.751 21.624 104.693 21.3055 104.589 21.0076C104.195 22.1405 103.121 22.9555 101.854 22.9555Z" fill="#C2C7D5"/>
    <path d="M33.1969 77.2031C39.7194 77.2031 45.007 71.9155 45.007 65.3929C45.007 58.8704 39.7194 53.5828 33.1969 53.5828C26.6743 53.5828 21.3867 58.8704 21.3867 65.3929C21.3867 71.9155 26.6743 77.2031 33.1969 77.2031Z" fill="#4D5C80"/>
    <path d="M86.8031 77.2031C93.3256 77.2031 98.6132 71.9155 98.6132 65.3929C98.6132 58.8704 93.3256 53.5828 86.8031 53.5828C80.2805 53.5828 74.9929 58.8704 74.9929 65.3929C74.9929 71.9155 80.2805 77.2031 86.8031 77.2031Z" fill="#E13F3F"/>
    <path d="M26.0791 65.3931C26.0791 59.6743 30.1446 54.9058 35.5429 53.8178C28.2021 52.3379 21.3883 57.9538 21.3883 65.3931C21.3883 72.8497 28.2175 78.445 35.5429 76.9686C30.1446 75.8807 26.0791 71.1121 26.0791 65.3931Z" fill="#43506F"/>
    <path d="M79.6844 65.3931C79.6844 59.6743 83.7499 54.9058 89.1483 53.8178C81.8074 52.3379 74.9937 57.9538 74.9937 65.3931C74.9937 72.8497 81.8229 78.445 89.1483 76.9686C83.7499 75.8807 79.6844 71.1121 79.6844 65.3931Z" fill="#C33434"/>
    <path d="M38.7401 67.204H27.6549C26.6548 67.204 25.8439 66.3932 25.8439 65.3929C25.8439 64.3929 26.6546 63.5819 27.6549 63.5819H38.7401C39.7402 63.5819 40.5511 64.3929 40.5511 65.3929C40.5511 66.3932 39.7402 67.204 38.7401 67.204Z" fill="#F5F5F5"/>
    <path d="M92.3455 67.204H81.2602C80.2602 67.204 79.4492 66.3932 79.4492 65.3929C79.4492 64.3929 80.2599 63.5819 81.2602 63.5819H92.3455C93.3456 63.5819 94.1565 64.3929 94.1565 65.3929C94.1563 66.3932 93.3456 67.204 92.3455 67.204Z" fill="#F5F5F5"/>
    <path d="M86.8027 72.7465C85.8026 72.7465 84.9917 71.9358 84.9917 70.9354V59.8502C84.9917 58.8501 85.8024 58.0392 86.8027 58.0392C87.8028 58.0392 88.6137 58.8499 88.6137 59.8502V70.9354C88.6137 71.9355 87.803 72.7465 86.8027 72.7465Z" fill="#F5F5F5"/>
</svg>
