<svg width="120" height="120" viewBox="0 0 120 120" fill="none" xmlns="http://www.w3.org/2000/svg">
    <rect x="45.5005" y="46.3037" width="55.3754" height="11.571" rx="5.78549" fill="white"/>
    <path d="M51.7317 70.1262C44.5738 66.7029 38.8087 69.6905 36.8223 70.1262L39.715 113.368H111.827L112.86 70.1262C105.801 65.215 100.015 68.3656 97.9508 70.1262C95.7144 72.4947 89.8066 75.2397 82.2959 70.1262C75.6806 65.6224 70.3684 67.8931 67.3865 70.1262C64.6757 72.1564 59.8414 74.0048 51.7317 70.1262Z" fill="#EBEDF2"/>
    <path d="M2.10938 51.4006C2.10938 44.5537 7.65992 39.0031 14.5069 39.0031C21.3538 39.0031 26.9043 44.5537 26.9043 51.4006V110C26.9043 115.523 22.4272 120 16.9043 120H12.1094C6.58652 120 2.10938 115.523 2.10938 110V51.4006Z" fill="#D0D4DE"/>
    <path d="M58.3221 97.9647C62.2081 97.9647 65.3582 94.8146 65.3582 90.9286C65.3582 87.0427 62.2081 83.8925 58.3221 83.8925C54.4362 83.8925 51.286 87.0427 51.286 90.9286C51.286 94.8146 54.4362 97.9647 58.3221 97.9647Z" fill="#4D5C80"/>
    <path d="M90.259 97.9637C94.145 97.9637 97.2951 94.8136 97.2951 90.9276C97.2951 87.0417 94.145 83.8915 90.259 83.8915C86.3731 83.8915 83.2229 87.0417 83.2229 90.9276C83.2229 94.8136 86.3731 97.9637 90.259 97.9637Z" fill="#E13F3F"/>
    <path d="M54.0811 90.928C54.0811 87.521 56.5032 84.68 59.7194 84.0318C55.3459 83.1502 51.2865 86.4959 51.2865 90.928C51.2865 95.3704 55.3551 98.7039 59.7194 97.8243C56.5032 97.1762 54.0811 94.3352 54.0811 90.928Z" fill="#43506F"/>
    <path d="M86.0175 90.9275C86.0175 87.5205 88.4396 84.6795 91.6558 84.0313C87.2823 83.1497 83.2229 86.4954 83.2229 90.9275C83.2229 95.37 87.2915 98.7034 91.6558 97.8239C88.4396 97.1757 86.0175 94.3347 86.0175 90.9275Z" fill="#C33434"/>
    <path d="M61.6245 92.0069H55.0202C54.4244 92.0069 53.9413 91.5239 53.9413 90.9279C53.9413 90.3321 54.4243 89.849 55.0202 89.849H61.6245C62.2203 89.849 62.7034 90.3321 62.7034 90.9279C62.7034 91.5239 62.2203 92.0069 61.6245 92.0069Z" fill="#F5F5F5"/>
    <path d="M93.5605 92.0069H86.9563C86.3604 92.0069 85.8773 91.5239 85.8773 90.9279C85.8773 90.3321 86.3603 89.849 86.9563 89.849H93.5605C94.1563 89.849 94.6394 90.3321 94.6394 90.9279C94.6393 91.5239 94.1563 92.0069 93.5605 92.0069Z" fill="#F5F5F5"/>
    <path d="M90.2586 95.3092C89.6628 95.3092 89.1797 94.8262 89.1797 94.2302V87.626C89.1797 87.0302 89.6627 86.5471 90.2586 86.5471C90.8544 86.5471 91.3376 87.03 91.3376 87.626V94.2302C91.3376 94.826 90.8546 95.3092 90.2586 95.3092Z" fill="#F5F5F5"/>
    <path d="M74.9372 26.0312C73.7886 29.7577 69.8361 31.8557 66.1535 30.6925L41.7457 22.9843C38.0631 21.8218 35.9903 17.8207 37.1395 14.0942C38.2887 10.3677 42.2413 8.26968 45.9232 9.43217L70.3317 17.1404C74.0136 18.3035 76.0864 22.304 74.9372 26.0312Z" fill="#D0D4DE"/>
    <path d="M37.1396 14.1136C35.99 17.8546 38.0636 21.8712 41.7475 23.0382L56.4805 27.7076C58.4362 21.8121 58.5732 16.9585 58.0484 13.2753L45.9265 9.43348C42.2432 8.26647 38.2886 10.3719 37.1396 14.1136Z" fill="#C8CDDA"/>
    <path d="M79.7188 49.1422C77.8751 49.1479 76.3794 47.6555 76.378 45.8082L76.3762 41.9248C76.3748 39.9526 74.7716 38.3526 72.803 38.3591C70.8338 38.3653 69.2329 39.975 69.2346 41.9481L69.2364 45.8314C69.2382 47.6782 67.7438 49.1808 65.9002 49.1864C64.0568 49.1929 62.5608 47.6997 62.56 45.8526L62.5573 41.9696C62.5535 36.3088 67.1481 31.6884 72.7984 31.67C78.4494 31.652 83.0491 36.2422 83.0526 41.9036L83.0553 45.7867C83.0567 47.634 81.5627 49.136 79.7188 49.1422Z" fill="#C2C7D5"/>
    <path d="M8.90397 57.8545C4.62176 54.7163 3.6788 48.6043 6.80739 44.2731L32.0011 9.59336C35.1299 5.26147 41.1933 4.28567 45.4755 7.42397C49.7571 10.5621 50.7007 16.6742 47.5721 21.0054L22.3783 55.6851C19.2496 60.017 13.1862 60.9928 8.90397 57.8545Z" fill="#EBEDF2"/>
    <path d="M43.2966 14.5525C43.2966 16.4925 41.6316 18.0651 39.5774 18.0651C37.5232 18.0651 35.8582 16.4925 35.8582 14.5525C35.8582 12.6125 37.5232 11.0399 39.5774 11.0399C41.6316 11.0399 43.2966 12.6125 43.2966 14.5525Z" fill="#C2C7D5"/>
    <path d="M18.226 50.1611C18.226 52.215 16.4686 53.8806 14.3005 53.8806C12.1324 53.8806 10.3743 52.215 10.3743 50.1611C10.3743 48.1071 12.1324 46.4421 14.3005 46.4421C16.4686 46.4421 18.226 48.1071 18.226 50.1611Z" fill="#C2C7D5"/>
    <path d="M83.1064 25.435C83.1064 30.7981 78.6656 35.1464 73.1884 35.1464C67.7112 35.1464 63.2704 30.7981 63.2704 25.435C63.2704 20.0713 67.7112 15.7237 73.1884 15.7237C78.6656 15.7237 83.1064 20.0713 83.1064 25.435Z" fill="#EBEDF2"/>
    <path d="M76.9077 25.2279C76.9077 27.2821 75.2426 28.9472 73.1885 28.9472C71.1343 28.9472 69.4692 27.2821 69.4692 25.2279C69.4692 23.1737 71.1343 21.5087 73.1885 21.5087C75.2426 21.5087 76.9077 23.1737 76.9077 25.2279Z" fill="#C2C7D5"/>
    <path fill-rule="evenodd" clip-rule="evenodd" d="M41.644 72.3662C41.6439 72.3662 41.6437 72.3662 41.6436 72.3663V66.051C41.6436 63.6546 39.7009 61.7119 37.3045 61.7119C34.908 61.7119 32.9653 63.6546 32.9653 66.051V81.9611V94.9785V109.924C32.9653 115.25 37.2824 119.567 42.6078 119.567H106.248C111.574 119.567 115.891 115.25 115.891 109.924V95.9427V81.9611V66.051C115.891 63.6546 113.948 61.7119 111.552 61.7119C109.155 61.7119 107.212 63.6546 107.212 66.051V70.6526C107.213 70.6843 107.213 70.7159 107.213 70.7477V100.889C107.213 106.411 102.736 110.889 97.2129 110.889H51.644C46.1212 110.889 41.644 106.411 41.644 100.889V72.3662Z" fill="#D0D4DE"/>
    <path fill-rule="evenodd" clip-rule="evenodd" d="M37.9309 71.5796L37.9311 71.5796V100.744C37.9311 106.267 42.4083 110.744 47.9311 110.744H49.9404C45.2289 109.936 41.6437 105.831 41.6437 100.889V72.3662L41.6432 72.3663V66.051C41.6432 63.6546 39.7005 61.7119 37.3041 61.7119C36.9902 61.7119 36.6841 61.7452 36.3892 61.8086C37.3329 62.6176 37.9309 63.8185 37.9309 65.1591V71.5796ZM103.612 119.567H106.248C111.573 119.567 115.89 115.25 115.89 109.924V95.9427V81.9611V66.051C115.89 63.7257 114.061 61.8276 111.763 61.717C112.771 62.5255 113.415 63.767 113.415 65.1591V81.3344V95.549V109.764C113.415 115.178 109.026 119.567 103.612 119.567Z" fill="#C2C7D5"/>
</svg>
